<svg aria-hidden="true" style="position: absolute; width: 0; height: 0; overflow: hidden;" version="1.1" xmlns="http://www.w3.org/2000/svg" xmlns:xlink="http://www.w3.org/1999/xlink">
  <defs>
    <symbol id="icon-logo" viewBox="0 0 89 32">
      <path fill="#c1ab81" style="fill: var(--color1, #c1ab81)" d="M9.030 0h-8.876l-0.155 1.672h0.019c1.373-0.654 2.262-1.365 3.287-1.365h0.406v12.071h1.76v-12.071h0.387c1.025 0 1.953 0.73 3.326 1.384h0.039l-0.193-1.691z"></path>
      <path fill="#c1ab81" style="fill: var(--color1, #c1ab81)" d="M19.948 0v5.786h-6.091v-5.786h-1.74v12.379h1.74v-6.285h6.091v6.285h1.74v-12.379h-1.74z"></path>
      <path fill="#c1ab81" style="fill: var(--color1, #c1ab81)" d="M28.296 12.071h-0.986v-5.978h3.249v-0.308h-3.249v-5.478h0.986c1.47 0 3.21 0.115 3.867 1.864h0.367l-0.019-2.172h-6.942v12.379h6.942l0.019-2.172h-0.367c-0.657 1.749-2.398 1.864-3.867 1.864z"></path>
      <path fill="#c1ab81" style="fill: var(--color1, #c1ab81)" d="M57.287 0c-0.522 1.615-0.948 2.845-1.837 5.324l-1.508 4.344-3.326-9.668h-0.077l-3.404 9.668-3.326-9.668h-1.856l4.409 12.648h0.058l3.423-9.688 3.364 9.688h0.058l2.514-7.208c0.754-2.114 1.296-3.671 2.030-5.44h-0.522z"></path>
      <path fill="#c1ab81" style="fill: var(--color1, #c1ab81)" d="M62.456 12.379v-12.379h-1.74v12.379h1.74z"></path>
      <path fill="#c1ab81" style="fill: var(--color1, #c1ab81)" d="M72.944 10.207c-0.658 1.749-2.398 1.864-3.868 1.864h-0.986v-12.071h-1.74v12.379h6.942l0.019-2.172h-0.367z"></path>
      <path fill="#c1ab81" style="fill: var(--color1, #c1ab81)" d="M80.642 0h-4.351v12.379h4.061c4.235 0 6.884-2.326 6.884-6.324 0-3.921-2.649-6.055-6.594-6.055zM80.642 12.109c-1.373 0-2.166-0.058-2.61-0.154v-11.667h2.456c2.939 0 4.834 2.345 4.834 5.862 0 3.806-1.702 5.959-4.679 5.959z"></path>
      <path fill="#c1ab81" style="fill: var(--color1, #c1ab81)" d="M2.951 31.6v-12.379h-1.74v12.379h1.74zM10.57 19.26v-0.038h-0.657c-0.948 0.903-2.127 1.999-3.964 3.729l-2.456 2.307 4.273 6.343h2.301l-5.144-7.227 1.238-1.172c1.586-1.499 2.959-2.768 4.409-3.94z"></path>
      <path fill="#c1ab81" style="fill: var(--color1, #c1ab81)" d="M15.177 31.6v-12.379h-1.74v12.379h1.74z"></path>
      <path fill="#c1ab81" style="fill: var(--color1, #c1ab81)" d="M27.386 19.221c0 0 0 0.192 0 5.42v4.171l-6.826-9.591h-2.069v0.058l0.831 1.153v11.148h0.348v-10.668l7.909 10.898h0.155v-12.59h-0.348z"></path>
      <path fill="#c1ab81" style="fill: var(--color1, #c1ab81)" d="M37.96 25.987l0.193 0.308h2.862v4.19c-0.754 0.596-1.914 1.019-3.171 1.019-2.901 0-4.815-2.518-4.815-6.112 0-3.691 1.74-6.093 4.467-6.093 0.89 0 1.412 0.538 1.798 1.249 0.619 1.115 2.108 1.365 3.017 0.481l0.039-0.019c-1.025-1.134-2.688-1.98-4.699-1.98-3.732 0-6.536 2.537-6.536 6.478 0 3.979 2.649 6.305 6.652 6.305 2.204 0 3.751-0.75 4.854-1.557v-4.267h-4.66z"></path>
      <path fill="#c1ab81" style="fill: var(--color1, #c1ab81)" d="M50.441 19.221h-4.351v12.378h4.061c4.235 0 6.884-2.326 6.884-6.324 0-3.921-2.649-6.055-6.594-6.055zM50.441 31.331c-1.373 0-2.166-0.058-2.61-0.154v-11.667h2.456c2.94 0 4.834 2.345 4.834 5.862 0 3.806-1.702 5.959-4.68 5.959z"></path>
      <path fill="#c1ab81" style="fill: var(--color1, #c1ab81)" d="M66.483 19.029c-3.713 0-6.575 2.537-6.575 6.516 0 3.902 2.804 6.266 6.362 6.266 3.694 0 6.575-2.537 6.575-6.516 0-3.902-2.804-6.266-6.362-6.266zM66.445 31.542c-2.727 0-4.622-2.48-4.622-6.189 0-3.652 1.779-6.055 4.525-6.055 2.688 0 4.583 2.48 4.583 6.189 0 3.652-1.779 6.055-4.486 6.055z"></path>
      <path fill="#c1ab81" style="fill: var(--color1, #c1ab81)" d="M87.673 19.221h-1.566l-3.616 9.111-4.119-9.111h-1.876v0.058l0.367 0.807-1.083 11.494h0.329l1.025-10.86 4.641 10.11h0.078l4.177-10.533 1.063 11.302h1.76l-1.18-12.378z"></path>
    </symbol>

    <symbol id="icon-arrow" viewBox="0 0 66 32">
      <path d="M66.462 15.652v0.696c-6.275 3.478-11.553 8.746-13.49 15.652-0.001 0.005-0.444-0.284-0.468-0.293s0.026 0.004 0.028-0.001c1.468-5.283 7.027-11.549 11.096-15.359-19.891 0.492-43.754-0.248-63.628 0.348v-1.391l63.628 0.348c-4.069-3.81-9.506-10.311-10.985-15.652l0.682-0c1.919 6.919 6.011 11.13 13.136 15.652z">
      </path>
    </symbol>

    <symbol id="icon-star" viewBox="0 0 32 32">
      <path d="M5.91 29.255c-0.15 0.854 0.693 1.523 1.437 1.14l8.453-4.345 8.453 4.345c0.744 0.382 1.587-0.286 1.437-1.14l-1.598-9.109 6.784-6.465c0.634-0.604 0.306-1.709-0.544-1.829l-9.434-1.34-4.206-8.333c-0.379-0.751-1.405-0.751-1.784 0l-4.206 8.333-9.434 1.34c-0.849 0.121-1.177 1.225-0.543 1.829l6.784 6.465-1.598 9.109zM15.356 23.924l-7.098 3.648 1.337-7.621c0.063-0.359-0.055-0.727-0.313-0.973l-5.598-5.335 7.804-1.109c0.323-0.046 0.604-0.252 0.756-0.553l3.557-7.046 3.557 7.046c0.152 0.302 0.434 0.508 0.756 0.553l7.804 1.109-5.598 5.335c-0.258 0.246-0.376 0.614-0.313 0.973l1.337 7.621-7.098-3.648c-0.28-0.144-0.609-0.144-0.889 0z">
      </path>
    </symbol>

    <symbol id="icon-star_fill" viewBox="0 0 32 32">
      <path d="M7.348 30.395c-0.744 0.382-1.587-0.286-1.437-1.14l1.598-9.109-6.784-6.465c-0.634-0.604-0.306-1.709 0.543-1.829l9.434-1.34 4.206-8.333c0.379-0.751 1.405-0.751 1.784 0l4.206 8.333 9.434 1.34c0.849 0.121 1.178 1.225 0.544 1.829l-6.784 6.465 1.598 9.109c0.15 0.854-0.693 1.523-1.437 1.14l-8.453-4.345-8.453 4.345z">
      </path>
    </symbol>

    <symbol id="icon-clock" viewBox="0 0 32 32">
      <path d="M32 16c0 8.837-7.163 16-16 16s-16-7.163-16-16c0-8.837 7.163-16 16-16s16 7.163 16 16zM16 7c0-0.552-0.448-1-1-1s-1 0.448-1 1v11c0 0.359 0.192 0.69 0.504 0.868l7 4c0.48 0.274 1.090 0.107 1.364-0.372s0.107-1.090-0.372-1.364l-6.496-3.712v-10.42z">
      </path>
    </symbol>

    <symbol id="icon-geo" viewBox="0 0 32 32">
      <path d="M16 32c0 0-12-11.373-12-20 0-6.627 5.373-12 12-12s12 5.373 12 12c0 8.627-12 20-12 20zM16 18c3.314 0 6-2.686 6-6s-2.686-6-6-6c-3.314 0-6 2.686-6 6s2.686 6 6 6z">
      </path>
    </symbol>

    <symbol id="icon-play" viewBox="0 0 29 32">
      <path d="M27.085 18.324l-22.241 12.698c-1.888 1.078-4.309-0.226-4.309-2.395v-25.395c0-2.169 2.42-3.473 4.309-2.395l22.241 12.697c1.881 1.074 1.881 3.716 0 4.79z">
      </path>
    </symbol>

    <symbol id="icon-quote" viewBox="0 0 40 32">
      <path d="M2.938 30.159c2.294 2.455 6.177 2.455 8.648 0 2.294-2.455 2.294-6.137-0.177-8.416-1.235-1.227-2.647-1.578-4.059-1.929-2.824-0.526-7.059-10.345 6.53-19.288l-0.353-0.526c-7.236 3.682-8.824 7.189-10.766 10.345-3.883 7.189-3.53 16.307 0.176 19.814zM29.058 30.159c2.294 2.455 6.177 2.455 8.648 0 2.294-2.455 2.294-6.137-0.176-8.416-1.235-1.227-2.647-1.578-4.059-1.929-2.824-0.526-7.060-10.345 6.53-19.288l-0.353-0.526c-7.236 3.682-8.824 7.189-10.766 10.345-3.883 7.189-3.53 16.307 0.177 19.814z">
      </path>
    </symbol>

    <symbol id="icon-soc_twitt" viewBox="0 0 32 32">
      <path d="M10.067 29c12.072 0 18.678-10.004 18.678-18.678 0-0.281-0.006-0.569-0.019-0.85 1.285-0.929 2.394-2.080 3.274-3.399-1.197 0.532-2.467 0.88-3.768 1.031 1.37-0.821 2.395-2.111 2.887-3.631-1.289 0.764-2.698 1.302-4.168 1.593-0.99-1.052-2.299-1.749-3.725-1.982s-2.889 0.009-4.163 0.691c-1.274 0.681-2.288 1.763-2.885 3.079s-0.745 2.791-0.419 4.199c-2.609-0.131-5.162-0.809-7.493-1.99s-4.387-2.838-6.036-4.865c-0.838 1.445-1.095 3.155-0.717 4.782s1.36 3.050 2.748 3.979c-1.042-0.033-2.062-0.314-2.974-0.819v0.081c-0.001 1.516 0.523 2.986 1.484 4.16s2.297 1.978 3.784 2.278c-0.966 0.264-1.979 0.303-2.962 0.113 0.419 1.304 1.236 2.445 2.335 3.263s2.426 1.272 3.795 1.3c-2.325 1.827-5.198 2.817-8.154 2.813-0.524-0.001-1.048-0.033-1.569-0.096 3.004 1.927 6.498 2.951 10.067 2.949z">
      </path>
    </symbol>

    <symbol id="icon-soc_insta" viewBox="0 0 32 32">
      <path d="M16 2.881c4.275 0 4.781 0.019 6.463 0.094 1.563 0.069 2.406 0.331 2.969 0.55 0.744 0.288 1.281 0.638 1.838 1.194 0.562 0.563 0.906 1.094 1.194 1.838 0.219 0.563 0.481 1.412 0.55 2.969 0.075 1.688 0.094 2.194 0.094 6.462 0 4.275-0.019 4.781-0.094 6.463-0.069 1.563-0.331 2.406-0.55 2.969-0.287 0.744-0.638 1.281-1.194 1.837-0.563 0.563-1.094 0.906-1.838 1.194-0.562 0.219-1.412 0.481-2.969 0.55-1.687 0.075-2.194 0.094-6.463 0.094-4.275 0-4.781-0.019-6.463-0.094-1.563-0.069-2.406-0.331-2.969-0.55-0.744-0.287-1.281-0.637-1.838-1.194-0.563-0.563-0.906-1.094-1.194-1.837-0.219-0.563-0.481-1.413-0.55-2.969-0.075-1.687-0.094-2.194-0.094-6.463 0-4.275 0.019-4.781 0.094-6.462 0.069-1.563 0.331-2.406 0.55-2.969 0.288-0.744 0.638-1.281 1.194-1.838 0.563-0.563 1.094-0.906 1.838-1.194 0.563-0.219 1.412-0.481 2.969-0.55 1.681-0.075 2.188-0.094 6.463-0.094zM16 0c-4.344 0-4.887 0.019-6.594 0.094-1.7 0.075-2.869 0.35-3.881 0.744-1.056 0.412-1.95 0.956-2.837 1.85-0.894 0.888-1.438 1.781-1.85 2.831-0.394 1.019-0.669 2.181-0.744 3.881-0.075 1.713-0.094 2.256-0.094 6.6s0.019 4.887 0.094 6.594c0.075 1.7 0.35 2.869 0.744 3.881 0.413 1.056 0.956 1.95 1.85 2.837 0.887 0.887 1.781 1.437 2.831 1.844 1.019 0.394 2.181 0.669 3.881 0.744 1.706 0.075 2.25 0.094 6.594 0.094s4.887-0.019 6.594-0.094c1.7-0.075 2.869-0.35 3.881-0.744 1.050-0.406 1.944-0.956 2.831-1.844s1.437-1.781 1.844-2.831c0.394-1.019 0.669-2.181 0.744-3.881 0.075-1.706 0.094-2.25 0.094-6.594s-0.019-4.888-0.094-6.594c-0.075-1.7-0.35-2.869-0.744-3.881-0.394-1.063-0.937-1.956-1.831-2.844-0.887-0.887-1.781-1.438-2.831-1.844-1.019-0.394-2.181-0.669-3.881-0.744-1.713-0.081-2.256-0.1-6.6-0.1z">
      </path>
      <path d="M16 7.781c-4.537 0-8.219 3.681-8.219 8.219s3.681 8.219 8.219 8.219c4.537 0 8.219-3.681 8.219-8.219s-3.681-8.219-8.219-8.219zM16 21.331c-2.944 0-5.331-2.387-5.331-5.331s2.387-5.331 5.331-5.331c2.944 0 5.331 2.387 5.331 5.331s-2.387 5.331-5.331 5.331z">
      </path>
      <path d="M26.463 7.456c0 1.063-0.863 1.919-1.919 1.919-1.063 0-1.919-0.863-1.919-1.919 0-1.063 0.862-1.919 1.919-1.919s1.919 0.862 1.919 1.919z">
      </path>
    </symbol>

    <symbol id="icon-soc_tiktok" viewBox="0 0 32 32">
      <path d="M22.764 0h-5.393v21.797c0 2.597-2.074 4.731-4.655 4.731s-4.655-2.133-4.655-4.731c0-2.551 2.028-4.638 4.517-4.73v-5.472c-5.485 0.093-9.91 4.591-9.91 10.203 0 5.658 4.517 10.203 10.094 10.203s10.094-4.591 10.094-10.203v-11.177c2.028 1.484 4.517 2.365 7.145 2.412v-5.472c-4.056-0.139-7.237-3.478-7.237-7.559z"></path>
    </symbol>

    <symbol id="icon-soc_medium" viewBox="0 0 32 32">
      <path d="M18.050 15.77c0 5.028-4.041 9.103-9.025 9.103s-9.025-4.077-9.025-9.103c0-5.027 4.041-9.104 9.025-9.104s9.025 4.076 9.025 9.104z">
      </path>
      <path d="M27.951 15.77c0 4.732-2.020 8.57-4.513 8.57s-4.513-3.838-4.513-8.57c0-4.732 2.020-8.57 4.512-8.57s4.513 3.837 4.513 8.57z">
      </path>
      <path d="M32 15.77c0 4.239-0.711 7.678-1.587 7.678s-1.587-3.438-1.587-7.678 0.71-7.678 1.587-7.678c0.876 0 1.587 3.437 1.587 7.678z">
      </path>
    </symbol>
  </defs>
</svg>
