<svg width="27" height="27" viewBox="0 0 27 27" fill="none" xmlns="http://www.w3.org/2000/svg">
<path fill-rule="evenodd" clip-rule="evenodd" d="M4.98689 24.6842C4.86047 25.4049 5.57151 25.9689 6.19948 25.6462L13.332 21.9803L20.4645 25.6462C21.0924 25.9689 21.8035 25.4049 21.677 24.6842L20.3287 16.9988L26.0525 11.5443C26.5874 11.0345 26.3105 10.1025 25.5939 10.0007L17.6339 8.86988L14.0847 1.83925C13.765 1.20593 12.8989 1.20593 12.5792 1.83925L9.03002 8.86988L1.07 10.0007C0.353392 10.1025 0.0764918 11.0345 0.61141 11.5443L6.3352 16.9988L4.98689 24.6842ZM12.9569 20.186L6.96753 23.2644L8.09569 16.8338C8.14887 16.5306 8.04888 16.2202 7.83123 16.0128L3.10761 11.5114L9.69261 10.5759C9.96483 10.5373 10.2025 10.3634 10.3309 10.109L13.332 4.16426L16.333 10.109C16.4614 10.3634 16.6991 10.5373 16.9713 10.5759L23.5563 11.5114L18.8327 16.0128C18.6151 16.2202 18.5151 16.5306 18.5682 16.8338L19.6964 23.2644L13.7071 20.186C13.4705 20.0644 13.1935 20.0644 12.9569 20.186Z" fill="#9D875C"/>
</svg>
